<svg xmlns="http://www.w3.org/2000/svg" width="64" height="64" fill="#47D99E" class="HechoPorCaSaGa24" viewBox="0 0 16 16">

                <path d="M 6.1995,3.4978721 6.709266,5.447091 C 6.576181,5.427591 8.8386359,5.057358 9.6409059,4.9119351 8.492485,4.442638 7.348749,3.965141 6.1995,3.4978721 Z M 9.2714844,5.4003906 C 8.4971806,5.4046606 7.7159726,5.4783598 6.8730469,5.5332031 L 3.5,7.4042969 0,5.5039062 0.12695312,5.6992188 0.08789062,5.6757812 1.6542969,8.2363281 0.08789062,10.794922 0.12695312,10.771484 0,10.966797 3.5,9.0664062 6.8730469,10.9375 C 12.680717,11.278172 13.541019,10.187113 16,8.2363281 13.185813,5.8363954 11.25026,5.3894666 9.2714844,5.4003906 Z M 12.289062,6.6992188 A 0.64999998,0.64999998 0 0 1 12.939453,7.3496094 0.64999998,0.64999998 0 0 1 12.289062,8 0.64999998,0.64999998 0 0 1 11.640625,7.3496094 0.64999998,0.64999998 0 0 1 12.289062,6.6992188 Z M 6.734375,11.019531 6.2246094,12.96875 C 7.3738572,12.50148 8.5175938,12.023984 9.6660156,11.554688 8.8637454,11.409265 6.6012901,11.039031 6.734375,11.019531 Z"/>
            </svg>
